<svg width="19" height="19" viewBox="0 0 19 19" fill="none" xmlns="http://www.w3.org/2000/svg">
<g clip-path="url(#clip0_246_897)">
<path d="M18.3376 9.90953C18.3376 10.0033 18.3041 10.0836 18.2372 10.1506L14.38 13.7064C14.2729 13.8002 14.1557 13.8202 14.0285 13.7667C13.9012 13.7064 13.8376 13.6093 13.8376 13.4754V11.2254H1.3019C1.20815 11.2254 1.13114 11.1952 1.07087 11.135C1.0106 11.0747 0.980469 10.9977 0.980469 10.904V8.97538C0.980469 8.88163 1.0106 8.80462 1.07087 8.74436C1.13114 8.68409 1.20815 8.65395 1.3019 8.65395H13.8376V6.40395C13.8376 6.26333 13.9012 6.16623 14.0285 6.11266C14.1557 6.05909 14.2729 6.07583 14.38 6.16288L18.2372 9.67851C18.3041 9.74547 18.3376 9.82248 18.3376 9.90953Z" fill="white"/>
</g>
<defs>
<clipPath id="clip0_246_897">
<rect width="18" height="18" fill="white" transform="matrix(1 0 0 -1 0.980469 18.9395)"/>
</clipPath>
</defs>
</svg>
