<svg width="19" height="19" viewBox="0 0 19 19" fill="none" xmlns="http://www.w3.org/2000/svg">
<path d="M9.99639 16.2959C9.84039 16.2959 9.70239 16.2569 9.58239 16.1789C9.46239 16.1009 9.37539 15.9929 9.32139 15.8549C9.26739 15.7169 9.25539 15.5759 9.28539 15.4319C9.31539 15.2879 9.37839 15.1679 9.47439 15.0719L15.0544 9.4739L9.47439 3.8939C9.40239 3.8219 9.34839 3.7409 9.31239 3.6509C9.27639 3.5609 9.25839 3.4679 9.25839 3.3719C9.25839 3.2759 9.27639 3.1859 9.31239 3.1019C9.34839 3.0179 9.40239 2.9399 9.47439 2.8679C9.54639 2.7959 9.62739 2.7419 9.71739 2.7059C9.80739 2.6699 9.89139 2.6519 9.96939 2.6519C10.0474 2.6519 10.1464 2.6759 10.2664 2.7239C10.3504 2.7599 10.4284 2.8139 10.5004 2.8859L16.5844 8.9699C16.7284 9.1139 16.8004 9.2849 16.8004 9.4829C16.8004 9.6809 16.7284 9.8519 16.5844 9.9959L10.5004 16.0799C10.3564 16.2239 10.1884 16.2959 9.99639 16.2959ZM16.0804 10.1939H3.12039C2.91639 10.1939 2.74539 10.1249 2.60739 9.9869C2.46939 9.8489 2.40039 9.6809 2.40039 9.4829C2.40039 9.2849 2.47239 9.1139 2.61639 8.9699C2.76039 8.8259 2.92839 8.7539 3.12039 8.7539H16.0804C16.2724 8.7539 16.4404 8.8259 16.5844 8.9699C16.7284 9.1139 16.8004 9.2849 16.8004 9.4829C16.8004 9.6809 16.7314 9.8489 16.5934 9.9869C16.4554 10.1249 16.2844 10.1939 16.0804 10.1939Z" fill="#9D2235"/>
</svg>
