<svg width="40" height="40" viewBox="0 0 40 40" fill="none" xmlns="http://www.w3.org/2000/svg">
<path d="M28.2492 34.2883C28.2492 34.2883 26.6842 23.303 23.3337 17.4997C19.983 11.6963 11.75 5.71094 11.75 5.71094" stroke="#1D1A17" stroke-width="2" stroke-linecap="round"/>
<path d="M36.4395 20.9675C27.4213 18.9892 15.0983 27.247 12.6289 34.6965" stroke="#1D1A17" stroke-width="2" stroke-linecap="round"/>
<path d="M27.3567 5.34766C24.8768 12.7161 12.7906 20.8533 3.81445 19.0854" stroke="#1D1A17" stroke-width="2" stroke-linecap="round"/>
<path d="M11.6663 5.56271C14.1178 4.14462 16.964 3.33301 19.9997 3.33301C29.2043 3.33301 36.6663 10.7949 36.6663 19.9997C36.6663 29.2043 29.2043 36.6663 19.9997 36.6663C10.7949 36.6663 3.33301 29.2043 3.33301 19.9997C3.33301 16.964 4.14462 14.1178 5.56271 11.6663" stroke="#1D1A17" stroke-width="2" stroke-linecap="round"/>
</svg>
