<svg width="40" height="40" viewBox="0 0 40 40" fill="none" xmlns="http://www.w3.org/2000/svg">
<g clip-path="url(#clip0_401_44)">
<g clip-path="url(#clip1_401_44)">
<path d="M31.2502 24.0621C30.132 24.0616 29.0508 24.4625 28.2032 25.1918L24.2002 22.0778C24.5212 21.4321 24.688 20.7208 24.6877 19.9996C24.6873 19.8116 24.6758 19.6238 24.6532 19.4371L27.1877 18.5935C27.755 19.579 28.6613 20.3248 29.7378 20.6916C30.8142 21.0586 31.9873 21.0216 33.0385 20.5878C34.0898 20.1538 34.9475 19.3526 35.4517 18.3333C35.956 17.3138 36.0723 16.1459 35.7793 15.0471C35.4863 13.9482 34.8038 12.9934 33.859 12.3604C32.914 11.7275 31.7713 11.4596 30.6437 11.6068C29.516 11.7539 28.4802 12.306 27.7293 13.1602C26.9785 14.0144 26.5638 15.1124 26.5627 16.2497C26.563 16.4377 26.5745 16.6255 26.597 16.8121L24.0627 17.656C23.5668 16.792 22.8078 16.1092 21.8967 15.707C20.9853 15.3047 19.9693 15.2042 18.997 15.42L17.7252 12.5606C18.6707 11.8863 19.3323 10.8849 19.5817 9.75061C19.831 8.6163 19.6505 7.4298 19.0748 6.42105C18.4993 5.41231 17.5697 4.65316 16.4663 4.29073C15.3629 3.9283 14.1642 3.9884 13.1026 4.45936C12.041 4.93033 11.192 5.77865 10.7202 6.8399C10.2484 7.90115 10.1874 9.09976 10.5489 10.2034C10.9105 11.3071 11.6689 12.2373 12.6772 12.8137C13.6855 13.39 14.8719 13.5716 16.0064 13.3231L17.2782 16.1825C16.3279 16.8583 15.6645 17.865 15.4182 19.0048C15.1719 20.1446 15.3605 21.3355 15.947 22.3435L11.5626 26.2496C10.6303 25.5516 9.472 25.2246 8.3123 25.3321C7.15261 25.4396 6.0741 25.9738 5.28586 26.8311C4.49763 27.6886 4.05581 28.8081 4.04606 29.9728C4.03631 31.1373 4.45931 32.2641 5.23306 33.1346C6.00683 34.0051 7.07623 34.5573 8.23398 34.6841C9.39171 34.811 10.5553 34.5035 11.4992 33.8211C12.4431 33.139 13.1001 32.1305 13.3427 30.9915C13.5854 29.8523 13.3965 28.6636 12.8126 27.656L17.1877 23.7496C18.0393 24.3898 19.084 24.7196 20.1488 24.6846C21.2137 24.6498 22.2345 24.252 23.0423 23.5575L27.0455 26.6715C26.5937 27.5848 26.4518 28.6203 26.6413 29.6215C26.8308 30.6225 27.3413 31.5346 28.0955 32.2196C28.8498 32.9046 29.8067 33.3253 30.8213 33.4178C31.836 33.5103 32.8532 33.2698 33.7188 32.7325C34.5845 32.1953 35.2517 31.3906 35.6192 30.4403C35.9865 29.4901 36.0345 28.446 35.7555 27.466C35.4763 26.4861 34.8857 25.6238 34.0728 25.0096C33.2598 24.3955 32.269 24.0628 31.2502 24.0621ZM31.2502 13.4372C31.8063 13.4372 32.3502 13.6021 32.8127 13.9111C33.2752 14.2202 33.6357 14.6594 33.8485 15.1734C34.0613 15.6873 34.1172 16.2528 34.0085 16.7983C33.9 17.344 33.6322 17.8451 33.2388 18.2385C32.8455 18.6318 32.3443 18.8996 31.7988 19.0081C31.2532 19.1166 30.6877 19.061 30.1738 18.8481C29.6598 18.6351 29.2207 18.2748 28.9117 17.8121C28.6025 17.3496 28.4377 16.806 28.4377 16.2497C28.4377 15.5037 28.734 14.7884 29.2613 14.2609C29.7888 13.7335 30.5042 13.4372 31.2502 13.4372ZM12.1876 8.74966C12.1876 8.1934 12.3526 7.64963 12.6616 7.18711C12.9707 6.72461 13.4099 6.36413 13.9238 6.15125C14.4377 5.93838 15.0032 5.88268 15.5488 5.9912C16.0944 6.09973 16.5955 6.3676 16.9888 6.76093C17.3822 7.15426 17.65 7.6554 17.7585 8.20096C17.8672 8.74655 17.8113 9.31205 17.5985 9.82596C17.3857 10.3399 17.0252 10.7791 16.5627 11.0882C16.1002 11.3972 15.5564 11.5622 15.0001 11.5622C14.2542 11.5622 13.5388 11.2658 13.0114 10.7384C12.4839 10.2109 12.1876 9.49558 12.1876 8.74966ZM8.75013 32.8121C8.19386 32.8121 7.6501 32.6471 7.1876 32.3381C6.72508 32.0291 6.3646 31.5898 6.15171 31.076C5.93885 30.562 5.88315 29.9965 5.99168 29.451C6.1002 28.9055 6.36806 28.4043 6.7614 28.011C7.15473 27.6176 7.65586 27.3498 8.20145 27.2411C8.74701 27.1326 9.31251 27.1883 9.82643 27.4013C10.3403 27.6141 10.7796 27.9746 11.0886 28.4371C11.3977 28.8996 11.5626 29.4435 11.5626 29.9996C11.5626 30.7456 11.2663 31.461 10.7389 31.9885C10.2114 32.5158 9.49605 32.8121 8.75013 32.8121ZM20.0002 22.8121C19.4438 22.8121 18.9002 22.6471 18.4375 22.3381C17.975 22.0291 17.6145 21.5898 17.4017 21.076C17.1888 20.562 17.1332 19.9965 17.2417 19.451C17.3502 18.9055 17.618 18.4043 18.0113 18.011C18.4047 17.6176 18.9058 17.3498 19.4515 17.2411C19.997 17.1326 20.5625 17.1885 21.0763 17.4013C21.5903 17.6141 22.0297 17.9746 22.3387 18.4371C22.6477 18.8996 22.8127 19.4435 22.8127 19.9996C22.8127 20.7456 22.5163 21.461 21.9888 21.9885C21.4613 22.5158 20.746 22.8121 20.0002 22.8121ZM31.2502 31.5621C30.6938 31.5621 30.1502 31.3971 29.6875 31.0881C29.225 30.7791 28.8645 30.3398 28.6517 29.826C28.4388 29.312 28.3832 28.7465 28.4917 28.201C28.6002 27.6555 28.868 27.1543 29.2613 26.761C29.6547 26.3676 30.1558 26.0998 30.7015 25.9911C31.247 25.8826 31.8125 25.9383 32.3265 26.1513C32.8403 26.3641 33.2797 26.7246 33.5887 27.1871C33.8977 27.6496 34.0627 28.1935 34.0627 28.7496C34.0627 29.4956 33.7663 30.211 33.2388 30.7385C32.7113 31.2658 31.996 31.5621 31.2502 31.5621Z" fill="#1D1A17"/>
</g>
</g>
<defs>
<clipPath id="clip0_401_44">
<rect width="40" height="40" fill="white"/>
</clipPath>
<clipPath id="clip1_401_44">
<rect width="40" height="40" fill="white"/>
</clipPath>
</defs>
</svg>
