<svg width="100" height="85" viewBox="0 0 100 85" fill="none" xmlns="http://www.w3.org/2000/svg">
<g clip-path="url(#clip0_246_941)">
<path d="M72.8531 69.3334L53.1781 60.0684C60.4907 55.1783 62.4781 45.568 62.4781 40.1784V28.9611C62.4781 21.5342 50.8688 13.2626 39.2063 13.2626C27.55 13.2626 15.6313 21.5342 15.6313 28.9611V40.1784C15.6313 45.0792 18.0688 54.9897 25.4563 60.0259L5.275 69.3308C5.275 69.3308 0 71.3283 0 73.8172V80.5481C0 83.0264 2.36563 85.0345 5.275 85.0345H72.8531C75.7625 85.0345 78.1282 83.0237 78.1282 80.5481V73.8172C78.1282 71.1769 72.85 69.3308 72.85 69.3308L72.8531 69.3334ZM71.8782 79.7273H6.25V74.978C6.69688 74.6991 7.325 74.3777 7.81875 74.1864C7.96563 74.1306 8.1125 74.0695 8.25313 74.0005L28.4375 64.6956C30.2781 63.8456 31.4969 62.2731 31.6844 60.5014C31.8719 58.7297 31 56.9951 29.3688 55.8822C24.1281 52.3095 21.8813 44.4019 21.8813 40.1811V28.9637C21.8813 25.1467 30.3438 18.5778 39.2063 18.5778C48.2344 18.5778 56.2281 25.0591 56.2281 28.9637V40.1811C56.2281 44.3408 54.7094 52.2856 49.3156 55.8928C47.6656 56.9978 46.775 58.735 46.95 60.512C47.125 62.2891 48.3438 63.8775 50.1844 64.7328L69.8594 73.9978C70.0313 74.0775 70.2532 74.1651 70.4344 74.2342C70.8969 74.4016 71.4625 74.6778 71.8782 74.9222V79.7273ZM94.725 56.108L74.7563 46.843C82.0688 41.9528 84.35 32.3425 84.35 26.953V15.7356C84.35 8.30874 72.45 -0.045166 60.7875 -0.045166C53.2094 -0.045166 45.4625 3.45843 40.9531 7.94218C43.525 8.07765 46.3594 8.0803 48.8094 8.74437C52.1031 6.56358 56.2656 5.26999 60.7875 5.26999C69.8157 5.26999 78.1 11.8309 78.1 15.7383V26.9556C78.1 31.1153 76.2875 39.0601 70.8969 42.6673C69.2438 43.7723 68.3563 45.5095 68.5313 47.2866C68.7063 49.0662 69.9219 50.652 71.7657 51.5073L91.7344 60.7723C91.9063 60.852 92.1282 60.9397 92.3094 61.0087C92.7719 61.1761 93.3375 61.4523 93.7532 61.6967V66.4222H81.1375C83.0438 67.6441 83.6188 69.3919 84.3594 71.7347H94.7313C97.6407 71.7347 100.006 69.7239 100.006 67.2483V60.5997C100.003 57.9567 94.725 56.108 94.725 56.108Z" fill="#9D2235"/>
</g>
<defs>
<clipPath id="clip0_246_941">
<rect width="100" height="85" fill="white"/>
</clipPath>
</defs>
</svg>
