<svg width="1" height="48" viewBox="0 0 1 48" fill="none" xmlns="http://www.w3.org/2000/svg">
<mask id="path-1-inside-1_1077_81" fill="white">
<path d="M1 0H0V48H1V0Z"/>
</mask>
<path d="M-0.5 48V47.5H0.5V48H-0.5ZM-0.5 46.5V45.5H0.5V46.5H-0.5ZM-0.5 44.5V43.5H0.5V44.5H-0.5ZM-0.5 42.5V41.5H0.5V42.5H-0.5ZM-0.5 40.5V39.5H0.5V40.5H-0.5ZM-0.5 38.5V37.5H0.5V38.5H-0.5ZM-0.5 36.5V35.5H0.5V36.5H-0.5ZM-0.5 34.5V33.5H0.5V34.5H-0.5ZM-0.5 32.5V31.5H0.5V32.5H-0.5ZM-0.5 30.5V29.5H0.5V30.5H-0.5ZM-0.5 28.5V27.5H0.5V28.5H-0.5ZM-0.5 26.5V25.5H0.5V26.5H-0.5ZM-0.5 24.5V23.5H0.5V24.5H-0.5ZM-0.5 22.5V21.5H0.5V22.5H-0.5ZM-0.5 20.5V19.5H0.5V20.5H-0.5ZM-0.5 18.5V17.5H0.5V18.5H-0.5ZM-0.5 16.5V15.5H0.5V16.5H-0.5ZM-0.5 14.5V13.5H0.5V14.5H-0.5ZM-0.5 12.5V11.5H0.5V12.5H-0.5ZM-0.5 10.5V9.5H0.5V10.5H-0.5ZM-0.5 8.5V7.5H0.5V8.5H-0.5ZM-0.5 6.5V5.5H0.5V6.5H-0.5ZM-0.5 4.5V3.5H0.5V4.5H-0.5ZM-0.5 2.5V1.5H0.5V2.5H-0.5ZM-0.5 0.500001V0H0.5V0.500001H-0.5ZM-1 48V47.5H1V48H-1ZM-1 46.5V45.5H1V46.5H-1ZM-1 44.5V43.5H1V44.5H-1ZM-1 42.5V41.5H1V42.5H-1ZM-1 40.5V39.5H1V40.5H-1ZM-1 38.5V37.5H1V38.5H-1ZM-1 36.5V35.5H1V36.5H-1ZM-1 34.5V33.5H1V34.5H-1ZM-1 32.5V31.5H1V32.5H-1ZM-1 30.5V29.5H1V30.5H-1ZM-1 28.5V27.5H1V28.5H-1ZM-1 26.5V25.5H1V26.5H-1ZM-1 24.5V23.5H1V24.5H-1ZM-1 22.5V21.5H1V22.5H-1ZM-1 20.5V19.5H1V20.5H-1ZM-1 18.5V17.5H1V18.5H-1ZM-1 16.5V15.5H1V16.5H-1ZM-1 14.5V13.5H1V14.5H-1ZM-1 12.5V11.5H1V12.5H-1ZM-1 10.5V9.5H1V10.5H-1ZM-1 8.5V7.5H1V8.5H-1ZM-1 6.5V5.5H1V6.5H-1ZM-1 4.5V3.5H1V4.5H-1ZM-1 2.5V1.5H1V2.5H-1ZM-1 0.500001V0H1V0.500001H-1Z" fill="white" mask="url(#path-1-inside-1_1077_81)"/>
</svg>
