<svg width="32" height="34" viewBox="0 0 32 34" fill="none" xmlns="http://www.w3.org/2000/svg">
<path fill-rule="evenodd" clip-rule="evenodd" d="M30.5525 23.8571V4.80952C30.5525 2.70558 28.8469 1 26.7429 1H11.5048C9.40089 1 7.69531 2.70558 7.69531 4.80952V23.8571C7.69531 25.9611 9.40089 27.6667 11.5048 27.6667H26.7429C28.8469 27.6667 30.5525 25.9611 30.5525 23.8571Z" stroke="black" stroke-width="2" stroke-linecap="round" stroke-linejoin="round"/>
<path d="M7.32513 5.6377L3.50763 7.02715C1.53057 7.74674 0.511189 9.93281 1.23078 11.9099L7.74545 29.8088C8.46504 31.7858 10.6511 32.8052 12.6282 32.0856L23.2347 27.8988" stroke="black" stroke-width="2" stroke-linecap="round" stroke-linejoin="round"/>
<path d="M13.4102 10.5234H22.934" stroke="black" stroke-width="2" stroke-linecap="round" stroke-linejoin="round"/>
<path d="M13.4102 14.333H24.8387" stroke="black" stroke-width="2" stroke-linecap="round" stroke-linejoin="round"/>
<path d="M13.4102 18.1426H19.1244" stroke="black" stroke-width="2" stroke-linecap="round" stroke-linejoin="round"/>
</svg>
