<svg width="40" height="40" viewBox="0 0 40 40" fill="none" xmlns="http://www.w3.org/2000/svg">
<g clip-path="url(#clip0_401_28)">
<g clip-path="url(#clip1_401_28)">
<path d="M16.25 5.31221H8.75C8.16983 5.31221 7.61343 5.54269 7.2032 5.95293C6.79297 6.36316 6.5625 6.91956 6.5625 7.49971V32.4998C6.5625 33.08 6.79297 33.6363 7.2032 34.0465C7.61343 34.4568 8.16983 34.6873 8.75 34.6873H16.25C16.5373 34.6873 16.8217 34.6306 17.0872 34.5206C17.3525 34.4108 17.5937 34.2496 17.7968 34.0465C18 33.8435 18.161 33.6023 18.271 33.3368C18.381 33.0715 18.4375 32.787 18.4375 32.4998V7.49971C18.4375 7.21244 18.381 6.92799 18.271 6.66259C18.161 6.39719 18 6.15604 17.7968 5.95293C17.5937 5.74979 17.3525 5.58866 17.0872 5.47873C16.8217 5.36879 16.5373 5.31221 16.25 5.31221ZM8.4375 12.1872H16.5625V27.8123H8.4375V12.1872ZM8.75 7.18721H16.25C16.3329 7.18721 16.4124 7.22014 16.471 7.27874C16.5296 7.33734 16.5625 7.41684 16.5625 7.49971V10.3122H8.4375V7.49971C8.4375 7.41684 8.47042 7.33734 8.52903 7.27874C8.58763 7.22014 8.66712 7.18721 8.75 7.18721ZM16.25 32.8123H8.75C8.66712 32.8123 8.58763 32.7793 8.52903 32.7206C8.47042 32.6621 8.4375 32.5826 8.4375 32.4998V29.6873H16.5625V32.4998C16.5625 32.5826 16.5296 32.6621 16.471 32.7206C16.4124 32.7793 16.3329 32.8123 16.25 32.8123ZM35.8907 30.4685L30.7047 5.80596C30.6462 5.52363 30.5323 5.25566 30.37 5.01744C30.2075 4.77924 29.9995 4.57549 29.758 4.41794C29.5165 4.26039 29.2463 4.15213 28.9628 4.09939C28.6793 4.04666 28.3882 4.05049 28.1063 4.11066L20.7922 5.68253C20.2262 5.80696 19.732 6.14956 19.417 6.63603C19.1018 7.12248 18.9913 7.71354 19.1093 8.28096L24.2953 32.9388C24.3543 33.2221 24.469 33.491 24.6325 33.7296C24.7962 33.9683 25.0055 34.1721 25.2485 34.3295C25.6 34.5595 26.011 34.6821 26.4313 34.6825C26.5888 34.6833 26.7462 34.6666 26.9 34.6325L34.214 33.0623C34.778 32.9363 35.2698 32.5938 35.5835 32.1086C35.8972 31.6235 36.0075 31.0343 35.8907 30.4685ZM22.9515 17.4498L30.8782 15.7466L33.0843 26.2403L25.1563 27.9388L22.9515 17.4498ZM21.9157 12.5185L29.8437 10.8107L30.4922 13.906L22.5657 15.6091L21.9157 12.5185ZM21.1875 7.51846L28.5 5.94816C28.5218 5.94604 28.5438 5.94604 28.5657 5.94816C28.624 5.94823 28.6812 5.96563 28.7297 5.99816C28.7655 6.02101 28.7965 6.05094 28.8203 6.08614C28.8443 6.12134 28.8607 6.16106 28.8687 6.20284L29.4547 8.98721L21.5297 10.6778L20.9453 7.89971C20.927 7.81668 20.9422 7.72979 20.9875 7.65784C21.0328 7.58591 21.1047 7.53471 21.1875 7.51534V7.51846ZM33.814 31.2373L26.5 32.8123C26.4608 32.821 26.4203 32.8216 26.3808 32.8145C26.3415 32.8071 26.3038 32.7921 26.2703 32.77C26.2345 32.7471 26.2035 32.7173 26.1797 32.682C26.1557 32.6468 26.1393 32.6071 26.1313 32.5653L25.5453 29.781L33.4703 28.0778L34.0625 30.8481C34.0717 30.8898 34.0725 30.933 34.065 30.975C34.0575 31.0168 34.0417 31.057 34.0187 31.0928C33.9955 31.1286 33.9655 31.1596 33.9305 31.184C33.8953 31.2081 33.8558 31.2251 33.814 31.2341V31.2373Z" fill="#1D1A17"/>
</g>
</g>
<defs>
<clipPath id="clip0_401_28">
<rect width="40" height="40" fill="white"/>
</clipPath>
<clipPath id="clip1_401_28">
<rect width="40" height="40" fill="white"/>
</clipPath>
</defs>
</svg>
