<svg width="40" height="40" viewBox="0 0 40 40" fill="none" xmlns="http://www.w3.org/2000/svg">
<path d="M19.9998 35.2379C28.4156 35.2379 35.2379 28.4156 35.2379 19.9998C35.2379 11.584 28.4156 4.76172 19.9998 4.76172C11.584 4.76172 4.76172 11.584 4.76172 19.9998C4.76172 28.4156 11.584 35.2379 19.9998 35.2379Z" stroke="black" stroke-width="2" stroke-linecap="round" stroke-linejoin="round"/>
<path d="M31.4284 29.5239C30.1684 25.1933 25.334 23.7617 19.9999 23.7617C14.8046 23.7617 9.96037 25.4166 8.57129 29.5239" stroke="black" stroke-width="2" stroke-linecap="round" stroke-linejoin="round"/>
<path fill-rule="evenodd" clip-rule="evenodd" d="M19.9994 8.57129C23.1554 8.57129 25.7137 11.1297 25.7137 14.2856V18.0951C25.7137 21.251 23.1554 23.8094 19.9994 23.8094C16.8435 23.8094 14.2852 21.251 14.2852 18.0951V14.2856C14.2852 11.1297 16.8435 8.57129 19.9994 8.57129Z" stroke="black" stroke-width="2" stroke-linecap="round" stroke-linejoin="round"/>
</svg>
