<svg width="50" height="51" viewBox="0 0 50 51" fill="none" xmlns="http://www.w3.org/2000/svg">
<path d="M22.6166 29.7617C23.2279 29.1524 23.2294 28.1632 22.62 27.5519C22.0108 26.9409 21.0214 26.9394 20.4104 27.5486L22.6166 29.7617ZM11.6111 24.2651L12.7159 23.1603L12.7143 23.1586L11.6111 24.2651ZM20.6658 15.7041C21.3914 16.1712 22.3583 15.9615 22.8254 15.2359C23.2923 14.5102 23.0827 13.5434 22.3571 13.0764L20.6658 15.7041ZM26.0416 38.7834L24.9369 39.8882C24.961 39.9124 24.9858 39.9357 25.0116 39.9582L26.0416 38.7834ZM37.1329 27.8082C36.6639 27.0838 35.6966 26.8767 34.9723 27.3457C34.2479 27.8149 34.0408 28.7821 34.5098 29.5065L37.1329 27.8082ZM27.131 39.7384L28.2341 38.6319L28.1987 38.5967L28.161 38.5636L27.131 39.7384ZM41.1748 21.1094L28.9937 33.2538L31.2002 35.4669L43.3812 23.3226L41.1748 21.1094ZM19.7556 33.2538L16.8944 30.4013L14.688 32.6142L17.5492 35.4669L19.7556 33.2538ZM16.8944 21.204L29.0754 9.05962L26.8689 6.8466L14.688 18.991L16.8944 21.204ZM36.5556 5.97089H37.7408V2.84589H36.5556V5.97089ZM44.2708 12.4767V13.6582H47.3958V12.4767H44.2708ZM37.7408 5.97089C39.6923 5.97089 40.9991 5.97419 41.9731 6.10475C42.9025 6.22933 43.2912 6.44356 43.545 6.69648L45.7514 4.48346C44.82 3.55479 43.6625 3.17825 42.3883 3.00744C41.1585 2.8426 39.6041 2.84589 37.7408 2.84589V5.97089ZM47.3958 12.4767C47.3958 10.6193 47.3991 9.06856 47.2337 7.84131C47.0621 6.56864 46.6835 5.41275 45.7514 4.48346L43.545 6.69648C43.7981 6.94875 44.0121 7.3345 44.1366 8.25894C44.2675 9.22881 44.2708 10.5307 44.2708 12.4767H47.3958ZM16.8944 30.4013C15.5144 29.0253 14.593 28.1021 13.9974 27.3238C13.4292 26.5813 13.3075 26.1578 13.3075 25.8026H10.1825C10.1825 27.1186 10.7351 28.203 11.5157 29.223C12.2688 30.2069 13.3706 31.3009 14.688 32.6142L16.8944 30.4013ZM17.5492 35.4669C18.8667 36.7805 19.9637 37.8788 20.9506 38.6296C21.9737 39.4078 23.0591 39.9569 24.3748 39.9569V36.8319C24.0141 36.8319 23.5873 36.7088 22.8425 36.1424C22.0616 35.5484 21.1356 34.6296 19.7556 33.2538L17.5492 35.4669ZM43.3812 23.3226C45.0448 21.6638 46.205 20.5462 46.8141 19.0799L43.9283 17.881C43.6135 18.6388 43.0196 19.2702 41.1748 21.1094L43.3812 23.3226ZM44.2708 13.6582C44.2708 16.2595 44.2431 17.1236 43.9283 17.881L46.8141 19.0799C47.4235 17.6131 47.3958 16.0039 47.3958 13.6582H44.2708ZM29.0754 9.05962C30.9196 7.22089 31.5535 6.62781 32.3154 6.31321L31.1225 3.42481C29.6535 4.03148 28.5333 5.18735 26.8689 6.8466L29.0754 9.05962ZM36.5556 2.84589C34.2018 2.84589 32.591 2.81837 31.1225 3.42481L32.3154 6.31321C33.0777 5.99841 33.9475 5.97089 36.5556 5.97089V2.84589ZM18.325 34.0405L22.6166 29.7617L20.4104 27.5486L16.1186 31.8276L18.325 34.0405ZM22.3571 13.0764L21.0462 12.2327L19.3549 14.8605L20.6658 15.7041L22.3571 13.0764ZM21.0462 12.2327C19.7515 11.3994 18.7066 10.7256 17.8073 10.241C16.8883 9.74581 16.0275 9.3946 15.0756 9.25394L14.6187 12.3454C15.0758 12.4129 15.5768 12.5889 16.3249 12.992C17.0926 13.4057 18.0199 14.0012 19.3549 14.8605L21.0462 12.2327ZM5.73887 18.0633C6.91191 16.8938 8.17012 15.6399 9.30083 14.6084C9.86577 14.093 10.3802 13.6504 10.8215 13.3103C11.287 12.9515 11.5823 12.7769 11.7226 12.7187L10.5249 9.83229C9.98902 10.0546 9.42693 10.4396 8.91379 10.8351C8.37646 11.2493 7.79104 11.7557 7.19473 12.2997C6.00296 13.3869 4.69331 14.693 3.53252 15.8503L5.73887 18.0633ZM15.0756 9.25394C13.545 9.02775 11.9712 9.23221 10.5249 9.83229L11.7226 12.7187C12.6615 12.3291 13.6642 12.2043 14.6187 12.3454L15.0756 9.25394ZM4.60041 21.0193L5.38925 21.3319L6.54044 18.4267L5.7516 18.1141L4.60041 21.0193ZM8.50635 23.3761L10.5079 25.3717L12.7143 23.1586L10.7127 21.1632L8.50635 23.3761ZM5.38925 21.3319C5.52181 21.3844 5.57489 21.4055 5.62633 21.4267L6.81677 18.5373C6.74129 18.5062 6.66554 18.4762 6.54044 18.4267L5.38925 21.3319ZM10.7127 21.1632C10.6176 21.0682 10.5599 21.0107 10.5014 20.9539L8.32521 23.1967C8.36508 23.2353 8.40548 23.2755 8.50635 23.3761L10.7127 21.1632ZM5.62633 21.4267C6.63083 21.8405 7.54675 22.4413 8.32521 23.1967L10.5014 20.9539C9.43802 19.9221 8.1875 19.1021 6.81677 18.5373L5.62633 21.4267ZM3.53252 15.8503C1.92045 17.4575 2.48885 20.1826 4.60041 21.0193L5.7516 18.1141C5.74233 18.1104 5.73856 18.1077 5.73798 18.1072C5.73825 18.1076 5.73719 18.1067 5.73798 18.1072C5.737 18.106 5.73216 18.0997 5.73021 18.0902C5.72825 18.0808 5.72954 18.075 5.72973 18.0743C5.72948 18.0747 5.72975 18.0743 5.72973 18.0743C5.72985 18.0741 5.73212 18.0701 5.73887 18.0633L3.53252 15.8503ZM34.5098 29.5065L35.356 30.8136L37.9791 29.1151L37.1329 27.8082L34.5098 29.5065ZM32.1439 44.3759L31.9689 44.5505L34.1752 46.7634L34.3504 46.589L32.1439 44.3759ZM35.356 30.8136C36.2179 32.1446 36.8152 33.0688 37.2298 33.834C37.6339 34.5794 37.81 35.0778 37.8773 35.5313L40.9683 35.0717C40.8269 34.1207 40.4739 33.2611 39.9771 32.3446C39.491 31.4478 38.815 30.4057 37.9791 29.1151L35.356 30.8136ZM34.3504 46.589C35.511 45.4317 36.8212 44.1259 37.9116 42.9378C38.4573 42.3432 38.9652 41.7594 39.3808 41.2236C39.7773 40.7121 40.1639 40.1511 40.3875 39.6157L37.5037 38.4119C37.4458 38.5507 37.271 38.8444 36.9112 39.3086C36.57 39.7486 36.1262 40.2615 35.6094 40.8246C34.5748 41.9519 33.3171 43.2063 32.1439 44.3759L34.3504 46.589ZM37.8773 35.5313C38.0183 36.4803 37.8937 37.4776 37.5037 38.4119L40.3875 39.6157C40.9902 38.1719 41.1956 36.6005 40.9683 35.0717L37.8773 35.5313ZM28.161 38.5636L27.0716 37.6086L25.0116 39.9582L26.1008 40.9134L28.161 38.5636ZM32.1785 44.6103C31.7312 43.4884 31.4625 42.8069 31.1091 42.1628L28.3694 43.6657C28.6096 44.1036 28.8014 44.5778 29.2756 45.7676L32.1785 44.6103ZM26.0277 40.8451C26.9356 41.7503 27.2969 42.114 27.6052 42.5074L30.0648 40.5799C29.6116 40.0015 29.0906 39.4857 28.2341 38.6319L26.0277 40.8451ZM31.1091 42.1628C30.8048 41.6076 30.4554 41.0782 30.0648 40.5799L27.6052 42.5074C27.891 42.8721 28.1466 43.2596 28.3694 43.6657L31.1091 42.1628ZM34.716 18.991C33.7458 19.9585 32.1706 19.9585 31.2002 18.991L28.9937 21.204C31.1837 23.3874 34.7325 23.3874 36.9225 21.204L34.716 18.991ZM31.2002 18.991C30.2325 18.0261 30.2325 16.4637 31.2002 15.4989L28.9937 13.2859C26.8012 15.4719 26.8012 19.018 28.9937 21.204L31.2002 18.991ZM31.2002 15.4989C32.1706 14.5315 33.7458 14.5315 34.716 15.4989L36.9225 13.2859C34.7325 11.1025 31.1837 11.1025 28.9937 13.2859L31.2002 15.4989ZM34.716 15.4989C35.6839 16.4637 35.6839 18.0261 34.716 18.991L36.9225 21.204C39.115 19.018 39.115 15.4719 36.9225 13.2859L34.716 15.4989ZM31.9689 44.5505C31.9821 44.5374 32.0039 44.5238 32.0281 44.5171C32.0485 44.5113 32.0639 44.5119 32.0748 44.5142C32.0854 44.5163 32.1033 44.5221 32.1248 44.5392C32.1491 44.5588 32.1687 44.5859 32.1785 44.6103L29.2756 45.7676C30.0756 47.774 32.6754 48.2588 34.1752 46.7634L31.9689 44.5505ZM28.9937 33.2538C27.9285 34.3159 27.1271 35.1138 26.4383 35.7086C25.7471 36.3055 25.2812 36.5967 24.9158 36.7313L25.9958 39.6638C26.8873 39.3355 27.6912 38.7557 28.4808 38.0736C29.2733 37.3892 30.1639 36.5001 31.2002 35.4669L28.9937 33.2538ZM24.9158 36.7313C24.7233 36.8023 24.5514 36.8319 24.3748 36.8319V39.9569C24.9387 39.9569 25.4754 39.8555 25.9958 39.6638L24.9158 36.7313ZM27.1464 37.6786L26.5606 37.0928L24.351 39.3024L24.9369 39.8882L27.1464 37.6786ZM14.688 18.991C13.6766 19.9994 12.8034 20.8689 12.1254 21.6426C11.4503 22.4132 10.8729 23.1932 10.5286 24.0494L13.4279 25.2153C13.5758 24.8476 13.8799 24.3821 14.4758 23.7021C15.0688 23.0253 15.856 22.2392 16.8944 21.204L14.688 18.991ZM10.5286 24.0494C10.3038 24.6084 10.1825 25.1882 10.1825 25.8026H13.3075C13.3075 25.6149 13.3417 25.4296 13.4279 25.2153L10.5286 24.0494ZM10.5062 25.3701L10.8734 25.7371L13.0831 23.5274L12.7159 23.1603L10.5062 25.3701Z" fill="#9D2235"/>
</svg>
