<svg width="60" height="60" viewBox="0 0 60 60" fill="none" xmlns="http://www.w3.org/2000/svg">
<path d="M8.18722 38.2393C6.0624 35.4788 5 34.0985 5 30C5 25.9015 6.0624 24.5213 8.18722 21.7608C12.4299 16.2489 19.5453 10 30 10C40.4547 10 47.57 16.2489 51.8127 21.7608C53.9375 24.5213 55 25.9015 55 30C55 34.0985 53.9375 35.4788 51.8127 38.2393C47.57 43.751 40.4547 50 30 50C19.5453 50 12.4299 43.751 8.18722 38.2393Z" stroke="#9D2235" stroke-width="3"/>
<path d="M37.5 30C37.5 34.1423 34.1423 37.5 30 37.5C25.8577 37.5 22.5 34.1423 22.5 30C22.5 25.8577 25.8577 22.5 30 22.5C34.1423 22.5 37.5 25.8577 37.5 30Z" stroke="#9D2235" stroke-width="3"/>
</svg>
