<svg width="70" height="70" viewBox="0 0 70 70" fill="none" xmlns="http://www.w3.org/2000/svg">
<g clip-path="url(#clip0_253_104)">
<g clip-path="url(#clip1_253_104)">
<g clip-path="url(#clip2_253_104)">
<path d="M70 0H0V70H70V0Z" fill="#FFF7F1"/>
<path opacity="0.35" d="M17.4824 26.1952C17.9187 29.4439 19.6265 36.91 26.3596 43.6431C33.0927 50.3762 40.5569 52.084 43.8075 52.5203C46.1619 53.0293 48.7148 52.3827 50.5445 50.5531C53.406 47.6916 43.041 37.3266 40.1795 40.1881L38.3538 42.0139L27.9888 31.6489L29.8126 29.8232C32.6741 26.9617 22.3091 16.5967 19.4477 19.4582C17.618 21.2879 16.9714 23.8408 17.4824 26.1952Z" fill="#9D2235"/>
<path d="M19.4531 19.4525L29.8161 29.8154C32.6717 26.952 32.6717 22.3179 29.8102 19.4564C26.9527 16.5989 22.3166 16.5969 19.4531 19.4525Z" fill="#9D2235"/>
<path d="M40.1826 40.1824L50.5456 50.5454C53.4011 47.684 53.4011 43.0478 50.5397 40.1864C47.6802 37.3288 43.046 37.3269 40.1826 40.1824Z" fill="#9D2235"/>
</g>
</g>
</g>
<defs>
<clipPath id="clip0_253_104">
<rect width="70" height="70" rx="35" fill="white"/>
</clipPath>
<clipPath id="clip1_253_104">
<rect width="70" height="70" fill="white"/>
</clipPath>
<clipPath id="clip2_253_104">
<rect width="70" height="70" fill="white"/>
</clipPath>
</defs>
</svg>
