<svg width="40" height="40" viewBox="0 0 40 40" fill="none" xmlns="http://www.w3.org/2000/svg">
<path d="M20 19.9999C22.1039 19.9999 23.8095 18.2943 23.8095 16.1904C23.8095 14.0864 22.1039 12.3809 20 12.3809C17.896 12.3809 16.1904 14.0864 16.1904 16.1904C16.1904 18.2943 17.896 19.9999 20 19.9999Z" stroke="black" stroke-width="2" stroke-linecap="round" stroke-linejoin="round"/>
<path d="M6.66699 12.3813H8.57175V10.4765C8.57175 8.37257 10.2773 6.66699 12.3813 6.66699H27.6194C29.7233 6.66699 31.4289 8.37257 31.4289 10.4765V29.5241C31.4289 31.6281 29.7233 33.3337 27.6194 33.3337H12.3813C10.2773 33.3337 8.57175 31.6281 8.57175 29.5241V27.6194H6.66699" stroke="black" stroke-width="2" stroke-linecap="round" stroke-linejoin="round"/>
<path d="M6.66699 20H8.57175" stroke="black" stroke-width="2" stroke-linecap="round" stroke-linejoin="round"/>
<path d="M6.66699 16.1904H8.57175" stroke="black" stroke-width="2" stroke-linecap="round" stroke-linejoin="round"/>
<path d="M6.66699 23.8096H8.57175" stroke="black" stroke-width="2" stroke-linecap="round" stroke-linejoin="round"/>
<path fill-rule="evenodd" clip-rule="evenodd" d="M25.7147 25.7143V23.8095C25.7147 21.7056 24.0091 20 21.9052 20H18.0957C15.9917 20 14.2861 21.7056 14.2861 23.8095V25.7143C14.2861 26.7663 15.1389 27.619 16.1909 27.619H23.8099C24.8619 27.619 25.7147 26.7663 25.7147 25.7143Z" stroke="black" stroke-width="2" stroke-linecap="round" stroke-linejoin="round"/>
</svg>
