<svg width="48" height="48" viewBox="0 0 48 48" fill="none" xmlns="http://www.w3.org/2000/svg">
<path d="M47.7758 24.4273C47.7758 24.2031 48 23.9789 48 23.7553C48 23.5297 48 23.306 47.7758 23.0818V22.8572C47.7758 22.8572 47.7758 22.6316 47.5512 22.6316L36.336 8.72646C35.664 8.0535 34.7664 7.82886 33.8688 8.5023C33.1968 9.17526 32.9722 10.0719 33.6446 10.9695L42.6168 22.1847H1.79424C0.89664 22.1847 0 22.8567 0 23.9789C0 24.8765 0.67296 25.7732 1.79424 25.7732H42.841L33.8698 36.9889C33.1963 37.6609 33.4205 38.7826 34.0934 39.4561C34.3176 39.6797 34.7664 39.9044 35.2147 39.9044C35.6635 39.9044 36.1123 39.6797 36.5606 39.2314L47.7758 25.3249C47.5512 24.8761 47.5512 24.6519 47.7758 24.4273Z" fill="#9D2235"/>
</svg>
