<svg width="143" height="85" viewBox="0 0 143 85" fill="none" xmlns="http://www.w3.org/2000/svg">
<path d="M136.991 22.2189L79.0231 1.2918C76.4237 0.258364 73.3044 0 71.4847 0C69.4052 0 66.5458 0.258364 63.9464 1.2918L5.97872 22.2189C0.519889 24.2857 0 27.9027 0 29.4529C0 31.003 0.519889 34.6201 5.97872 36.6869L8.57817 37.462V58.9058C8.57817 62.0061 10.9177 64.3313 14.037 64.3313C17.1563 64.3313 19.4958 62.0061 19.4958 58.9058V41.3374L29.6337 44.9544V69.2401C29.6337 79.8328 54.5884 85 71.4847 85C88.3811 85 113.336 80.0912 113.336 69.2401V45.2128L136.991 36.6869C142.45 34.8784 142.969 31.003 142.969 29.4529C142.969 27.9027 142.45 24.2857 136.991 22.2189ZM102.678 67.9483C99.5588 70.0152 87.8613 74.1489 71.7447 74.1489C55.6281 74.1489 43.6707 70.0152 40.8113 67.9483V49.0882L64.2063 57.614C66.8058 58.6474 69.9251 58.9058 71.7447 58.9058C73.5643 58.9058 76.6836 58.6474 79.2831 57.614L102.678 49.0882V67.9483ZM75.3839 47.2796C73.5643 48.0547 69.6651 48.0547 67.8455 47.2796L12.5701 29.4529L66.6764 10.7318C68.496 9.95674 73.5643 9.95674 75.3839 10.7318L124.773 29.4529L75.3839 47.2796Z" fill="#9D2235"/>
</svg>
